<svg width="17" height="17" viewBox="0 0 17 17" fill="none" xmlns="http://www.w3.org/2000/svg">
<path fill-rule="evenodd" clip-rule="evenodd" d="M3.0029 1.82131C2.75354 1.71742 2.46613 1.77428 2.27512 1.9653C2.0841 2.15632 2.02724 2.44373 2.13112 2.69309L6.84446 14.0064C6.95111 14.2624 7.20512 14.4257 7.48229 14.4163C7.75947 14.407 8.00191 14.227 8.0911 13.9644L9.41972 10.0527L12.9418 13.5748C13.2021 13.8351 13.6242 13.8351 13.8846 13.5748C14.1449 13.3144 14.1449 12.8923 13.8846 12.632L10.3625 9.1099L14.2743 7.78129C14.5369 7.6921 14.7168 7.44965 14.7261 7.17248C14.7355 6.8953 14.5722 6.6413 14.3162 6.53464L3.0029 1.82131ZM7.39634 11.8641L3.98449 3.67467L12.1739 7.08653L8.91878 8.19212C8.72261 8.25875 8.56857 8.4128 8.50194 8.60897L7.39634 11.8641Z" fill="#12F7D6"/>
</svg>
